:FULLY-SPECIFIED
:FORCE-ALL-JOINTS-BE-3DOF
:DEGREES
510
root -4.38423 14.8355 -41.4329 2.30831 -7.19852 -6.38294
lfemur -28.8101 24.5896 -16.6932
ltibia 64.9374 -0 0
lfoot -24.7626 28.5431 -0.145087
ltoes -5.6407 0 0
rfemur -34.4123 -10.6684 10.6068
rtibia 72.2548 -0 0
rfoot -6.02647 -9.29538 0.106296
rtoes 11.7567 -0 0
lowerback 16.4467 0.0245328 -7.12824
upperback -0.239898 -1.08392 2.93041
thorax -9.31965 -0.10034 7.55499
lowerneck 3.71969 -14.6542 -15.4365
upperneck 2.44952 -20.8655 17.1335
head 3.7323 -10.5387 6.73436
lclavicle 1.57288e-14 -3.97569e-15 0
lhumerus -36.4604 -45.5239 109.521
lradius 90.394 -0 0
lwrist 45.117 0 0
lhand -8.0589 45.6426 -0.215732
lfingers 7.12502 -0 0
lthumb 17.8486 74.7925 -0.220767
rclavicle 1.57288e-14 -3.97569e-15 0
rhumerus 41.2312 24.7006 -39.5673
rradius 86.0993 -0 0
rwrist -19.4103 0 0
rhand -4.48057 -19.7451 0.258292
rfingers 7.12502 -0 0
rthumb 21.2123 -47.5945 0.522029
511
root -4.46881 14.8209 -41.4672 2.11651 -9.8336 -6.14302
lfemur -27.3595 24.0626 -15.915
ltibia 64.4804 -0 0
lfoot -24.5547 28.3469 -0.147223
ltoes -6.52119 0 0
rfemur -35.1565 -11.2096 10.4076
rtibia 72.0198 -0 0
rfoot -5.99089 -8.45043 0.107871
rtoes 11.5645 -0 0
lowerback 16.4773 0.116084 -7.1752
upperback -0.202801 -0.983631 2.83513
thorax -9.31463 -0.0548147 7.45191
lowerneck 3.49006 -14.5218 -15.3485
upperneck 2.72557 -20.6658 16.8257
head 3.77678 -10.4268 6.63123
lclavicle 1.57288e-14 -3.97569e-15 0
lhumerus -38.1576 -44.0863 109.572
lradius 90.9717 -0 0
lwrist 46.488 0 0
lhand -8.27259 45.9265 -0.218909
lfingers 7.12502 -0 0
lthumb 17.6429 75.0943 -0.224019
rclavicle 1.57288e-14 -3.97569e-15 0
rhumerus 39.6017 24.0053 -40.6444
rradius 84.4382 -0 0
rwrist -18.695 0 0
rhand -5.37867 -19.8266 0.262124
rfingers 7.12502 -0 0
rthumb 20.3494 -47.7657 0.529769
512
root -4.55338 14.8063 -41.5014 1.91167 -12.4679 -5.89189
lfemur -25.9229 23.5179 -15.1548
ltibia 64.0233 -0 0
lfoot -24.3468 28.1507 -0.148647
ltoes -7.40167 0 0
rfemur -35.9002 -11.7533 10.2152
rtibia 71.7849 -0 0
rfoot -5.9553 -7.60548 0.108921
rtoes 11.3724 -0 0
lowerback 16.5077 0.20766 -7.22212
upperback -0.165873 -0.883278 2.73992
thorax -9.30969 -0.00927995 7.34884
lowerneck 3.26078 -14.389 -15.2611
upperneck 3.0001 -20.4648 16.5194
head 3.82105 -10.3149 6.52823
lclavicle 1.57288e-14 -3.97569e-15 0
lhumerus -39.8133 -42.6483 109.565
lradius 91.5494 -0 0
lwrist 47.8589 0 0
lhand -8.4863 46.2104 -0.221027
lfingers 7.12502 -0 0
lthumb 17.4372 75.3961 -0.226186
rclavicle 1.57288e-14 -3.97569e-15 0
rhumerus 37.9956 23.2825 -41.6937
rradius 82.7772 -0 0
rwrist -17.9797 0 0
rhand -6.27678 -19.908 0.264678
rfingers 7.12502 -0 0
rthumb 19.4866 -47.937 0.534929
513
root -4.63795 14.7917 -41.5356 1.69256 -15.1012 -5.62815
lfemur -24.5002 22.9561 -14.4128
ltibia 63.5663 -0 0
lfoot -24.1389 27.9545 -0.149358
ltoes -8.28216 0 0
rfemur -36.6435 -12.2994 10.0296
rtibia 71.5499 -0 0
rfoot -5.91969 -6.76053 0.109446
rtoes 11.1802 -0 0
lowerback 16.5381 0.299261 -7.26899
upperback -0.129112 -0.782864 2.64477
thorax -9.30483 0.0362636 7.24578
lowerneck 3.03184 -14.2559 -15.1743
upperneck 3.27313 -20.2623 16.2144
head 3.86509 -10.2029 6.42535
lclavicle 1.57288e-14 -3.97569e-15 0
lhumerus -41.4324 -41.2111 109.502
lradius 92.1271 -0 0
lwrist 49.2299 0 0
lhand -8.70002 46.4942 -0.222086
lfingers 7.12502 -0 0
lthumb 17.2314 75.6979 -0.22727
rclavicle 1.57288e-14 -3.97569e-15 0
rhumerus 36.4127 22.5333 -42.715
rradius 81.1161 -0 0
rwrist -17.2644 0 0
rhand -7.17489 -19.9895 0.265956
rfingers 7.12502 -0 0
rthumb 18.6237 -48.1083 0.53751
514
root -4.72253 14.7772 -41.5698 1.45774 -17.7335 -5.35026
lfemur -23.0914 22.3775 -13.6892
ltibia 63.1093 -0 0
lfoot -23.9311 27.7584 -0.149358
ltoes -9.16265 0 0
rfemur -37.3866 -12.8478 9.85099
rtibia 71.315 -0 0
rfoot -5.88408 -5.91557 0.109446
rtoes 10.9881 -0 0
lowerback 16.5684 0.390887 -7.31581
upperback -0.0925186 -0.682389 2.54969
thorax -9.30006 0.0818158 7.14272
lowerneck 2.80325 -14.1224 -15.0881
upperneck 3.54465 -20.0586 15.911
head 3.90892 -10.0908 6.3226
lclavicle 1.57288e-14 -3.97569e-15 0
lhumerus -43.0192 -39.7757 109.388
lradius 92.7048 -0 0
lwrist 50.6008 0 0
lhand -8.91374 46.7782 -0.222086
lfingers 7.12502 -0 0
lthumb 17.0257 75.9998 -0.22727
rclavicle 1.57288e-14 -3.97569e-15 0
rhumerus 34.853 21.7585 -43.7081
rradius 79.4551 -0 0
rwrist -16.549 0 0
rhand -8.07301 -20.071 0.265956
rfingers 7.12502 -0 0
rthumb 17.7608 -48.2797 0.53751
515
root -4.8071 14.7626 -41.604 1.20555 -20.3646 -5.05642
lfemur -21.6964 21.7828 -12.9841
ltibia 62.6523 -0 0
lfoot -23.7232 27.5622 -0.148647
ltoes -10.0431 0 0
rfemur -38.1296 -13.3984 9.67926
rtibia 71.08 -0 0
rfoot -5.84847 -5.07062 0.108921
rtoes 10.7959 -0 0
lowerback 16.5986 0.482538 -7.36258
upperback -0.0560929 -0.581854 2.45468
thorax -9.29536 0.127376 7.03966
lowerneck 2.57499 -13.9886 -15.0025
upperneck 3.81467 -19.8534 15.6089
head 3.95252 -9.97861 6.21997
lclavicle 1.57288e-14 -3.97569e-15 0
lhumerus -44.5778 -38.3432 109.226
lradius 93.2825 -0 0
lwrist 51.9718 0 0
lhand -9.12746 47.062 -0.221027
lfingers 7.12502 -0 0
lthumb 16.8199 76.3016 -0.226186
rclavicle 1.57288e-14 -3.97569e-15 0
rhumerus 33.3163 20.9592 -44.673
rradius 77.794 -0 0
rwrist -15.8337 0 0
rhand -8.97112 -20.1525 0.264678
rfingers 7.12502 -0 0
rthumb 16.8979 -48.451 0.534929
516
root -4.89167 14.748 -41.6382 0.934065 -22.9944 -4.74459
lfemur -20.3151 21.1724 -12.2976
ltibia 62.1952 -0 0
lfoot -23.5153 27.366 -0.147223
ltoes -10.9236 0 0
rfemur -38.8727 -13.9512 9.51449
rtibia 70.8451 -0 0
rfoot -5.81288 -4.22567 0.107871
rtoes 10.6037 -0 0
lowerback 16.6287 0.574213 -7.40931
upperback -0.0198347 -0.481258 2.35973
thorax -9.29075 0.172946 6.9366
lowerneck 2.34708 -13.8545 -14.9175
upperneck 4.08319 -19.647 15.3083
head 3.99591 -9.86637 6.11746
lclavicle 1.57288e-14 -3.97569e-15 0
lhumerus -46.1117 -36.9147 109.018
lradius 93.8602 -0 0
lwrist 53.3427 0 0
lhand -9.34117 47.3459 -0.218909
lfingers 7.12502 -0 0
lthumb 16.6142 76.6034 -0.224019
rclavicle 1.57288e-14 -3.97569e-15 0
rhumerus 31.8022 20.1362 -45.6095
rradius 76.133 -0 0
rwrist -15.1184 0 0
rhand -9.86923 -20.2339 0.262124
rfingers 7.12502 -0 0
rthumb 16.0351 -48.6223 0.529769
517
root -4.97625 14.7334 -41.6725 0.641032 -25.6228 -4.41242
lfemur -18.9474 20.5469 -11.6299
ltibia 61.7382 -0 0
lfoot -23.3074 27.1698 -0.145087
ltoes -11.8041 0 0
rfemur -39.6159 -14.5059 9.35674
rtibia 70.6101 -0 0
rfoot -5.7773 -3.38072 0.106296
rtoes 10.4116 -0 0
lowerback 16.6588 0.665912 -7.45598
upperback 0.0162564 -0.380602 2.26485
thorax -9.28622 0.218523 6.83355
lowerneck 2.1195 -13.72 -14.8331
upperneck 4.35021 -19.4392 15.009
head 4.03907 -9.75405 6.01507
lclavicle 1.57288e-14 -3.97569e-15 0
lhumerus -47.6243 -35.491 108.766
lradius 94.4379 -0 0
lwrist 54.7137 0 0
lhand -9.55486 47.6298 -0.215732
lfingers 7.12502 -0 0
lthumb 16.4085 76.9052 -0.220767
rclavicle 1.57288e-14 -3.97569e-15 0
rhumerus 30.3105 19.2906 -46.5179
rradius 74.4719 -0 0
rwrist -14.4031 0 0
rhand -10.7673 -20.3154 0.258292
rfingers 7.12502 -0 0
rthumb 15.1722 -48.7935 0.522029
